# xmcd
#
# Track frame offsets:
#	150
#	15415
#	29513
#	45224
#	60702
#
# Disc length: 1079 seconds
#
# Revision: 0
# Processed by: cddbd v1.5.2PL0 Copyright (c) Steve Scherf et al.
# Submitted via: EZCDAudioConverter 6.0.9.1
#
DISCID=31043505
DTITLE=Curtis Grimes - Bottom Of The Fifth
DYEAR=2015
DGENRE=Country
TTITLE0=	\nSmile That Smile
TTITLE1=	\nBottom Of The Fifth
TTITLE2=	\nLonger
TTITLE3=	\nMe And Trouble
TTITLE4=	\nHeaven Sent
EXTD=
EXTT0=
EXTT1=
EXTT2=
EXTT3=
EXTT4=
PLAYORDER=
